<?xml version="1.0" encoding="utf-8"?>
<!-- Generator: Adobe Illustrator 26.5.0, SVG Export Plug-In . SVG Version: 6.00 Build 0)  -->
<svg version="1.1" xmlns="http://www.w3.org/2000/svg" xmlns:xlink="http://www.w3.org/1999/xlink" x="0px" y="0px"
	 viewBox="0 0 1080 1080" style="enable-background:new 0 0 1080 1080;" xml:space="preserve">
<style type="text/css">
	.st0{fill:#FFFFFF;}
	.st1{display:none;fill:#575756;}
	.st2{fill:#259ABA;}
	.st3{fill:#383838;}
	.st4{fill:#5E5E5E;}
</style>
<g id="Layer_12">
	<rect class="st0" width="1080" height="1080"/>
</g>
<g id="Layer_11">
	<path id="XMLID_00000165950225457546102700000001352987534396493967_" class="st1" d="M598.9,580.9c31.8,31.5,51.7,75.1,52,123.4
		c0.2,39.9-12.9,76.8-35.2,106.4c-5,6.7-10.5,13-16.5,18.8c-18.2-21.1-40.7-37.6-66-48.6c5.9-4.5,11.3-9.6,16-15.4
		c13.6-16.5,21.7-37.7,21.6-60.8c-0.3-52.3-43.1-94.6-95.4-94.2L242.2,612l43.6-80.4l189-1.2C523.1,530.1,567,549.4,598.9,580.9z
		 M613.2,314.6c-8.3-8.3-17.4-15.7-27.2-22.2c-23.3-15.4-50.5-25.4-79.9-28.2c-5.5-0.5-11.1-0.8-16.7-0.8l-298.9-2l65.9,82.3
		l233.1-0.2c51.1-0.1,92.8,40.4,94.8,91c0.1,1.2,0.1,2.5,0.1,3.7c0,34.6-18.6,64.9-46.3,81.5c28.3,8.2,53.7,23.2,74.2,43.4
		c17.1-16.8,30.7-37,39.7-59.6c8.1-20.2,12.6-42.2,12.6-65.3c0-4.8-0.2-9.5-0.5-14.2C660.6,381.5,641.8,343.1,613.2,314.6z
		 M621.7,131c-40.6,0-73.6,33-73.6,73.6c0,40.7,33,73.6,73.6,73.6s73.6-33,73.6-73.6C695.3,164,662.4,131,621.7,131z"/>
	<g>
		<g>
			<path id="XMLID_00000180345467373514889160000013785579863707131306_" class="st2" d="M227.4,565.8c13,12.8,21.1,30.7,21.2,50.4
				c0.1,16.3-5.3,31.4-14.4,43.4c-2.1,2.7-4.3,5.3-6.7,7.7c-7.4-8.6-16.6-15.4-26.9-19.8c2.4-1.8,4.6-3.9,6.5-6.3
				c5.6-6.7,8.9-15.4,8.8-24.8c-0.1-21.3-17.6-38.6-38.9-38.5l-95.1,0.6l17.8-32.8l77.1-0.5C196.5,545.1,214.4,552.9,227.4,565.8z"
				/>
			<path id="XMLID_00000031203572650634362120000004048771293583438725_" class="st2" d="M233.3,457.1c-3.4-3.4-7.1-6.4-11.1-9.1
				c-9.5-6.3-20.6-10.4-32.6-11.5c-2.3-0.2-4.5-0.3-6.8-0.3l-122-0.8L87.7,469l95.1-0.1c20.8,0,37.9,16.5,38.7,37.2c0,0.5,0,1,0,1.5
				c0,14.1-7.6,26.5-18.9,33.3c11.6,3.3,21.9,9.5,30.3,17.7c7-6.8,12.5-15.1,16.2-24.3c3.3-8.2,5.1-17.2,5.1-26.7
				c0-1.9-0.1-3.9-0.2-5.8C252.6,484.4,244.9,468.7,233.3,457.1z"/>
			<path id="XMLID_00000131360428216077053710000005976569603615622076_" class="st2" d="M236.7,382.2c-16.6,0-30,13.4-30,30
				c0,16.6,13.4,30,30,30s30-13.4,30-30C266.8,395.6,253.3,382.2,236.7,382.2z"/>
			<path class="st2" d="M90.4,548.2l-14.6,26.9c-15.1-38.1-22.7-81-21.2-124.5c2-1.4,4.1-2.7,6.1-4.1l17.8,22.2h0l10.5,13.3
				c1.3,17.6,4.3,35.1,8.9,52.1L90.4,548.2L90.4,548.2z M184,429.6c3.2,0.1,6.3,0.3,9.5,0.4c4.3,0.6,8.5,1.5,12.6,2.8
				c-4-5.9-6.3-13-6.3-20.6c0-5.3,1.1-10.3,3.1-14.8c-6.6-2.2-13.2-4.4-19.8-6.4c-32,9.7-62.9,21.9-92.3,37.7l84.2,0.6
				C177.9,429.4,181,429.5,184,429.6z M197.8,653.8l-4.2-1.8c-3.4,2.6-7,5-10.6,7.2c-28.2-17.6-50.2-44.6-65.4-74l-35.7,0.2l-1.7,0
				c22.3,50.3,57.9,91.2,102.9,112.4c14.2-6.7,27.4-15.3,39.6-25.6l-0.4-0.5C215.5,663.9,207.3,657.9,197.8,653.8z M250.8,643.5
				c40.4-49.8,63.2-120.4,60.8-192.9c-13.2-9-26.8-17-40.7-24.3c-5.1,12.4-16.7,21.4-30.5,22.7c12.8,6,25.2,12.7,37.3,20
				c-1,39.8-10.7,79.9-28.8,115.2c-0.1,0.1-0.1,0.2-0.2,0.4c0.2,0.3,0.3,0.7,0.4,1c4.1,9.6,6.3,19.9,6.3,30.5
				c0.1,8.7-1.3,17.3-4.1,25.6C251.3,642.3,251.1,642.9,250.8,643.5z"/>
			<path class="st2" d="M250.5,588.7c26.3-37.1,52.9-87.1,61.1-138.1h0c2.4,72.4-20.3,142.9-60.6,192.7c0.2-0.5,0.4-1.1,0.6-1.6
				c2.8-8.2,4.2-16.8,4.1-25.6C255.5,606.6,253.8,597.4,250.5,588.7z M54.6,451.1c-1.4,43.4,6.2,86,21.2,124l14.5-26.7
				C73.9,518.8,60.1,485.2,54.6,451.1z M222.6,672.2l-0.4-0.4c-6.8-7.9-15-13.9-24.5-18l-4.2-1.8c-3.4,2.6-7,5-10.6,7.2c0,0,0,0,0,0
				c0,0,0,0,0,0c-17-10.6-31.7-24.6-44.2-40.6c-8.1-9.5-16.9-20.8-25.7-33.4l-31.2,0.2l-1.7,0c22.3,50.3,57.9,91.2,102.9,112.4
				C197.2,691.1,210.4,682.5,222.6,672.2z"/>
			<path class="st2" d="M104.2,585.3l9.1-0.1c8.8,12.7,17.6,24,25.7,33.4c0.8,1,1.6,2.1,2.4,3.1c11.8,14.7,25.8,27.6,41.7,37.5
				c2.1-1.3,4.1-2.6,6.1-4c0.2-0.2,0.5-0.3,0.7-0.5c0.7-0.5,1.3-0.9,2-1.4c0.4-0.3,0.8-0.6,1.2-0.9c0.2-0.1,0.4-0.3,0.6-0.4l4.2,1.8
				c1.1,0.5,2.2,1,3.3,1.5c-6,4.9-12.1,9.1-18,12.7C156,651.8,127.5,621.6,104.2,585.3z M90.3,548.3c-16.4-29.7-30.2-63.5-35.7-97.7
				C57.3,485,69.4,521.5,86.7,555L90.3,548.3z M311.6,450.8C311.6,450.7,311.6,450.7,311.6,450.8c-8.2,51-34.9,100.9-61.1,138
				c1.2,3.1,2.1,6.2,2.9,9.3C284,554.8,307.7,500.6,311.6,450.8z"/>
			<path class="st2" d="M311.7,453.7c-8.8,50.2-35.1,99.2-61,135.7c-0.5-1.3-1-2.5-1.5-3.8c0-0.1-0.1-0.2-0.1-0.3
				c0.1-0.2,0.2-0.4,0.4-0.7c15.6-30.4,24.9-64.4,27.9-98.7c0.5,8.2,8.6,11.5,15.1,5.2c8.3-8.1,16.3-29,19.2-38.6
				C311.7,453,311.7,453.4,311.7,453.7z M90.3,548.4l0.1-0.2l7.5-14c-4.2-15.6-7-31.6-8.5-47.6c-0.9,7.8-8.9,10.8-15.2,4.6
				c-9-8.6-17.5-32.2-19.7-40.6C60.1,484.9,73.9,518.6,90.3,548.4z M117.6,585.2l-4.5,0c8.9,12.9,17.8,24.3,26,33.9
				C130.9,608.5,123.7,597,117.6,585.2z"/>
			<path id="XMLID_00000106828296808934547120000015709720867857928871_" class="st2" d="M221.5,506.1c0,0.5,0,1,0,1.5
				c0,14.1-7.6,26.5-18.9,33.3c11.6,3.3,21.9,9.5,30.3,17.7c7-6.8,12.5-15.1,16.2-24.3c3.3-8.2,5.1-17.2,5.1-26.7
				c0-1.9-0.1-3.9-0.2-5.8c-1.4-17.4-9.1-33.1-20.7-44.7c-3.4-3.4-7.1-6.4-11.1-9.1c-9.5-6.3-20.6-10.4-32.6-11.5
				c-2.3-0.2-4.5-0.3-6.8-0.3l-122-0.8c13.1,0.1,142.1,2.4,158.9,57.8C220.9,497.1,221.5,501.4,221.5,506.1z"/>
			<path id="XMLID_00000150076032577170636010000017178928523500881313_" class="st2" d="M99.6,545.7l77.1-0.5
				c19.7-0.1,37.6,7.8,50.6,20.6c13,12.8,21.1,30.7,21.2,50.4c0.1,16.3-5.3,31.4-14.4,43.4c-2.1,2.7-4.3,5.3-6.7,7.7
				c-7.4-8.6-16.6-15.4-26.9-19.8c2.4-1.8,4.6-3.9,6.5-6.3c5.6-6.7,8.9-15.4,8.8-24.8c0.6-7.1-0.2-13.1-1.8-18.1
				C204.2,566.5,158.1,546.9,99.6,545.7z"/>
		</g>
		<g>
			<path class="st3" d="M393.3,543.1c0,6.3-2.1,11.4-6.4,15.3c-4.3,3.9-9.7,5.9-16.5,5.9H344v-69.5h42.6v9.3h-31.8V522h15.4
				c6.8,0,12.4,2,16.7,5.9C391.2,531.8,393.3,536.9,393.3,543.1z M354.8,555.2h12.9c4.7,0,8.2-1,10.8-3.1c2.5-2.1,3.8-5.1,3.8-9
				s-1.3-6.9-3.8-9c-2.6-2.1-6.2-3.2-10.8-3.2h-12.9V555.2z"/>
			<path class="st3" d="M451.5,555v9.3h-44.1v-69.5h44.1v9.3h-33.3v20.3h31.5v9h-31.5V555H451.5z"/>
			<path class="st3" d="M478.4,533.4v-9h9.3c4,0,7.2-1.1,9.7-3.2c2.5-2.1,3.7-4.8,3.7-8.2c0-3.3-1.2-6-3.5-7.9
				c-2.3-1.9-5.5-2.9-9.5-2.9c-4,0-7.3,1-9.8,3c-2.5,2-3.9,4.7-4.2,8.2H464c0.4-6.2,2.7-11.1,7.1-14.7c4.4-3.6,10.2-5.4,17.4-5.4
				c6.8,0,12.4,1.7,16.8,5.2c4.3,3.5,6.5,8,6.5,13.5c0,3.9-1.2,7.3-3.6,10.2c-2.4,2.9-5.5,4.9-9.4,5.8v0.4c4.7,0.6,8.3,2.4,11,5.5
				c2.7,3.1,4,7,4,11.7c0,5.8-2.4,10.7-7.3,14.7c-4.9,3.9-11,5.9-18.2,5.9c-7.5,0-13.7-1.9-18.5-5.6c-4.8-3.7-7.3-8.6-7.7-14.8h10.4
				c0.3,3.4,1.9,6.1,4.7,8.2c2.8,2,6.5,3.1,11,3.1c4.3,0,7.8-1.1,10.5-3.3c2.7-2.2,4-5.1,4-8.6c0-3.6-1.3-6.5-3.9-8.5
				c-2.6-2.1-6.3-3.1-10.9-3.1H478.4z"/>
			<path class="st3" d="M556.4,493.7c10,0,17.9,3.2,23.8,9.7c5.9,6.5,8.8,15.2,8.8,26.2c0,11-2.9,19.8-8.8,26.2
				c-5.8,6.4-13.8,9.7-23.8,9.7c-10,0-17.9-3.2-23.8-9.7c-5.8-6.4-8.8-15.2-8.8-26.2c0-11,2.9-19.8,8.8-26.2
				C538.4,497,546.3,493.7,556.4,493.7z M556.4,503.2c-6.6,0-11.9,2.4-15.7,7.1c-3.9,4.7-5.8,11.2-5.8,19.3c0,8.1,1.9,14.5,5.8,19.3
				c3.9,4.8,9.1,7.1,15.7,7.1c6.6,0,11.8-2.4,15.7-7.1c3.9-4.7,5.8-11.2,5.8-19.3c0-8.1-1.9-14.6-5.8-19.3
				C568.2,505.6,562.9,503.2,556.4,503.2z"/>
			<path class="st3" d="M658.4,564.4h-10.7v-60.1h-34.8v60.1h-10.8v-69.5h56.3V564.4z"/>
			<path class="st3" d="M768.4,565.7c-9.8,0-17.5-3.2-23.2-9.7c-5.7-6.5-8.6-15.3-8.6-26.3c0-11,2.9-19.8,8.6-26.3
				c5.8-6.5,13.5-9.7,23.2-9.7c7.6,0,14.1,2.1,19.5,6.4c5.4,4.3,8.6,9.8,9.8,16.8h-10.8c-1.1-4.1-3.4-7.4-6.7-9.9
				c-3.4-2.5-7.3-3.7-11.8-3.7c-6.3,0-11.4,2.4-15.1,7.2c-3.8,4.8-5.7,11.2-5.7,19.2c0,8.1,1.9,14.6,5.6,19.3
				c3.8,4.8,8.8,7.1,15.2,7.1c4.6,0,8.5-1.1,11.8-3.2c3.2-2.1,5.4-5.2,6.7-9.1h10.8c-1.5,6.9-4.8,12.3-9.9,16.1
				C782.7,563.8,776.2,565.7,768.4,565.7z"/>
			<path class="st3" d="M867.7,564.4h-10.8v-30.8h-35.7v30.8h-10.8v-69.5h10.8v29.4h35.7v-29.4h10.8V564.4z"/>
			<path class="st3" d="M894.2,528.9v26.3h13.2c4.7,0,8.3-1.1,10.9-3.4c2.6-2.3,3.8-5.5,3.8-9.7c0-4.2-1.3-7.5-3.9-9.8
				c-2.6-2.3-6.2-3.4-10.8-3.4h-6.2v-9.1h8.7c6.8,0,12.4,2.1,16.8,6.2c4.3,4.1,6.5,9.5,6.5,16.1c0,6.6-2.1,11.9-6.4,16.1
				c-4.3,4.1-9.8,6.2-16.5,6.2h-26.8v-69.5h10.8v24.9V528.9z M952.6,564.4h-10.8v-69.5h10.8V564.4z"/>
			<path class="st3" d="M1014.9,564.4v-52.3h-0.7l-35.4,52.3h-10.5v-69.5H979v52.4h0.7l35.4-52.4h10.5v69.5H1014.9z M981.3,475.5
				h6.8c0,2.6,0.9,4.8,2.5,6.5c1.6,1.7,3.7,2.6,6.2,2.6c2.5,0,4.6-0.8,6.2-2.6c1.6-1.7,2.4-3.9,2.5-6.5h6.8c0,4.3-1.4,7.8-4.3,10.5
				c-2.9,2.7-6.6,4-11.2,4c-4.6,0-8.3-1.3-11.2-4C982.8,483.4,981.3,479.9,981.3,475.5z"/>
			<polygon class="st3" points="705.7,494.9 694,494.9 669,564.4 680.2,564.4 686.5,545.6 704.8,545.6 701.9,536.9 689.3,536.9 
				699.6,506.5 699.9,506.5 707.9,530 707.9,530 707.9,530 715,551.5 715,551.5 719.4,564.4 730.8,564.4 			"/>
		</g>
		<g>
			<path class="st4" d="M366.5,644.2c-6.9,0-12.4-2.4-16.4-7.1C346,632.4,344,626,344,618c0-7.9,2-14.2,6.1-18.9
				c4.1-4.7,9.5-7,16.4-7c5.2,0,9.8,1.5,13.6,4.5c3.8,3,6.1,6.9,6.8,11.7H382c-0.8-3.5-2.6-6.3-5.5-8.5c-2.9-2.2-6.2-3.3-10.1-3.3
				c-5.4,0-9.6,1.9-12.8,5.8c-3.2,3.9-4.8,9.1-4.8,15.7c0,6.6,1.6,11.9,4.8,15.9c3.2,3.9,7.5,5.9,12.9,5.9c3.9,0,7.3-1,10.1-2.9
				c2.8-1.9,4.6-4.5,5.4-7.9h4.9c-1,4.7-3.2,8.5-6.9,11.1C376.4,642.8,371.9,644.2,366.5,644.2z"/>
			<path class="st4" d="M434.5,643.4h-4.7v-46.1h-28.9v46.1H396v-50.5h38.5V643.4z"/>
			<path class="st4" d="M467,592.1c7,0,12.6,2.3,16.8,7c4.1,4.7,6.2,11,6.2,19c0,8-2.1,14.3-6.2,19c-4.1,4.7-9.7,7-16.8,7
				s-12.6-2.3-16.7-7c-4.1-4.7-6.2-11-6.2-19c0-8,2.1-14.3,6.2-19C454.4,594.4,459.9,592.1,467,592.1z M480.1,602.4
				c-3.3-3.9-7.6-5.8-13.2-5.8c-5.5,0-9.9,1.9-13.2,5.8c-3.2,3.9-4.9,9.2-4.9,15.8c0,6.6,1.6,11.9,4.9,15.8
				c3.2,3.9,7.6,5.8,13.2,5.8c5.5,0,9.9-1.9,13.2-5.8c3.3-3.9,4.9-9.1,4.9-15.7C485,611.5,483.4,606.2,480.1,602.4z"/>
			<path class="st4" d="M504.2,624.3v19h-4.8v-50.5h17.2c4.8,0,8.7,1.4,11.7,4.3c3,2.9,4.5,6.7,4.5,11.4c0,4.7-1.5,8.5-4.5,11.4
				c-3,2.9-6.9,4.4-11.7,4.4h-5.7v-4.3h4.6c3.9,0,6.9-1,9.1-3c2.2-2,3.3-4.8,3.3-8.4c0-3.6-1.1-6.4-3.3-8.4c-2.2-2-5.2-3-9.1-3
				h-11.3v22.9V624.3z"/>
			<path class="st4" d="M559.2,643.4h-4.8v-46.2h-16.7v-4.3h38.1v4.3h-16.7V643.4z"/>
			<path class="st4" d="M599,607c0-4.3,1.6-7.9,4.6-10.7c3.1-2.8,6.9-4.3,11.5-4.3c4.4,0,8.1,1.3,11.2,4c3,2.7,4.5,5.9,4.5,9.8
				c0,2.8-0.8,5.4-2.3,8c-1.5,2.6-4.4,6-8.6,10.4L606,639v0.1h26.2v4.3h-32.9V640l17.8-18.9c3.6-3.8,6-6.7,7.2-8.7
				c1.2-2,1.8-4.1,1.8-6.3c0-2.8-1.1-5.1-3.2-7c-2.1-1.9-4.8-2.9-7.9-2.9c-3.2,0-5.9,1-8.1,3.1c-2.2,2-3.3,4.6-3.3,7.7v0L599,607
				L599,607z"/>
			<path class="st4" d="M658.1,644.2c-5.7,0-10.2-2.3-13.4-7c-3.2-4.7-4.9-11-4.9-19.1c0-8,1.6-14.3,4.9-19c3.3-4.7,7.7-7,13.4-7
				c5.7,0,10.2,2.3,13.4,7c3.2,4.7,4.9,11,4.9,19c0,8-1.6,14.4-4.9,19.1C668.3,641.8,663.8,644.2,658.1,644.2z M648.2,634.1
				c2.4,3.9,5.7,5.9,9.9,5.9c4.2,0,7.5-2,9.9-5.9c2.4-3.9,3.6-9.2,3.6-16c0-6.7-1.2-12-3.6-15.9c-2.4-3.9-5.7-5.9-9.9-5.9
				c-4.2,0-7.5,2-9.9,5.9c-2.4,3.9-3.6,9.2-3.6,15.9C644.7,624.8,645.9,630.2,648.2,634.1z"/>
			<path class="st4" d="M684.5,607c0-4.3,1.6-7.9,4.6-10.7c3.1-2.8,6.9-4.3,11.5-4.3c4.4,0,8.1,1.3,11.2,4c3,2.7,4.5,5.9,4.5,9.8
				c0,2.8-0.8,5.4-2.3,8c-1.5,2.6-4.4,6-8.6,10.4L691.4,639v0.1h26.2v4.3h-32.9V640l17.8-18.9c3.6-3.8,6-6.7,7.2-8.7
				c1.2-2,1.8-4.1,1.8-6.3c0-2.8-1.1-5.1-3.2-7c-2.1-1.9-4.8-2.9-7.9-2.9c-3.2,0-5.9,1-8.1,3.1c-2.2,2-3.3,4.6-3.3,7.7v0L684.5,607
				L684.5,607z"/>
			<path class="st4" d="M750.4,643.4V632h-25.6v-4.4c5.2-8.7,12.9-20.3,23.3-34.8h7v34.9h7.5v4.2h-7.5v11.4H750.4z M729.7,627.6v0.1
				h20.8V597h-0.1C741.9,608.8,735,619,729.7,627.6z"/>
		</g>
		<g>
			<g>
				<path class="st4" d="M343.1,470.8l7-10.3v-0.1l-6.9-10.2h3.1l5.5,8.3h0.1l5.6-8.3h2.9l-7.1,10.3v0.1l7,10.2h-3.1l-5.5-8.2h-0.1
					l-5.6,8.2H343.1z"/>
				<path class="st4" d="M368.5,470.8H366v-20.6h2.6V470.8z"/>
				<path class="st4" d="M404.9,470.8h-2.4v-15.9h-0.1l-6.6,15.8h-2.2l-6.6-15.8H387v15.9h-2.4v-20.6h3l7.1,17.2h0.1l7.1-17.2h3
					V470.8z"/>
				<path class="st4" d="M424.9,468.5v2.3h-12.8v-20.6h12.8v2.3h-10.2v6.6h9.7v2.3h-9.7v7.1H424.9z"/>
				<path class="st4" d="M447.5,460l9.7,10.8h-3.5l-9-10h-0.1v10h-2.6v-10H442l-9,10h-3.3l9.7-10.7l-8.8-9.9h3.3l8.3,9.5h0.1v-9.5
					h2.6v9.5h0.1l8.3-9.5h3.2L447.5,460z"/>
				<path class="st4" d="M463.2,470.8v4.1h-2.4v-6.4h1.5c0.7-0.4,1.2-1,1.6-1.9c0.3-0.9,0.6-2,0.6-3.5l0.8-13h12.8v18.3h2.6v6.4
					h-2.4v-4.1H463.2z M467,463.2c-0.1,1.3-0.2,2.3-0.4,3.1c-0.2,0.8-0.5,1.5-1,2.1v0.1h10v-16h-7.9L467,463.2z"/>
				<path class="st4" d="M488.7,470.9c-0.5,0-0.9-0.1-1.1-0.2v-2.3c0.3,0.1,0.7,0.1,1.1,0.1c0.8,0,1.4-0.2,2-0.5
					c0.5-0.3,1-0.9,1.4-1.6l-7.1-16.2h2.7l5.5,13.4h0.2l5.4-13.4h2.7l-6.3,14.7c-1,2.3-1.9,3.9-2.9,4.7S490.2,470.9,488.7,470.9z"/>
				<path class="st4" d="M523.5,470.8H521v-9.4h-11.3v9.4h-2.6v-20.6h2.6v8.9H521v-8.9h2.6V470.8z"/>
				<path class="st4" d="M544.2,470.8l-2.1-5.9h-8.2l-2.1,5.9h-2.7l7.6-20.6h2.5l7.6,20.6H544.2z M537.9,453.3l-3.3,9.4h6.7
					L537.9,453.3L537.9,453.3z"/>
				<path class="st4" d="M552.5,450.1h7.4c1.9,0,3.5,0.6,4.8,1.9s1.9,2.8,1.9,4.8c0,2-0.6,3.6-1.9,4.8c-1.2,1.2-2.8,1.9-4.8,1.9H555
					v7.4h-2.6V450.1z M555,452.4v8.7h4.1c1.5,0,2.6-0.4,3.4-1.2c0.8-0.8,1.2-1.8,1.2-3.2c0-1.4-0.4-2.4-1.2-3.2s-1.9-1.1-3.4-1.1
					H555z"/>
				<path class="st4" d="M574.3,452.7c1.7-1.9,4-2.9,7-2.9c2.9,0,5.2,1,7,2.9s2.6,4.5,2.6,7.8c0,3.3-0.9,5.9-2.6,7.8
					c-1.7,1.9-4,2.9-7,2.9c-2.9,0-5.2-1-7-2.9c-1.7-1.9-2.6-4.5-2.6-7.8C571.8,457.2,572.6,454.6,574.3,452.7z M586.3,454.4
					c-1.2-1.5-2.9-2.2-5-2.2c-2.1,0-3.8,0.7-5,2.2c-1.2,1.5-1.9,3.5-1.9,6.1c0,2.5,0.6,4.6,1.9,6c1.2,1.5,2.9,2.2,5,2.2
					c2.1,0,3.8-0.7,5-2.2c1.2-1.5,1.9-3.5,1.9-6C588.2,457.9,587.5,455.9,586.3,454.4z"/>
				<path class="st4" d="M597.9,470.8v4.1h-2.4v-6.4h1.5c0.7-0.4,1.2-1,1.6-1.9c0.3-0.9,0.6-2,0.6-3.5l0.8-13h12.8v18.3h2.6v6.4H613
					v-4.1H597.9z M601.7,463.2c-0.1,1.3-0.2,2.3-0.4,3.1c-0.2,0.8-0.5,1.5-1,2.1v0.1h10v-16h-7.9L601.7,463.2z"/>
				<path class="st4" d="M637.8,470.8h-2.6v-9.4h-11.3v9.4h-2.6v-20.6h2.6v8.9h11.3v-8.9h2.6V470.8z"/>
				<path class="st4" d="M645,470.8v-20.6h2.6v7.7h5c1.9,0,3.5,0.6,4.8,1.8c1.2,1.2,1.9,2.8,1.9,4.7c0,1.9-0.6,3.5-1.8,4.7
					c-1.2,1.2-2.8,1.8-4.8,1.8H645z M647.6,468.5h4.4c1.5,0,2.6-0.4,3.4-1.1s1.2-1.8,1.2-3.1c0-1.3-0.4-2.4-1.2-3.1
					s-1.9-1.1-3.4-1.1h-4.4V468.5z M664.6,470.8H662v-20.6h2.6V470.8z"/>
				<path class="st4" d="M685.8,470.8v-16.4h-0.2l-11.2,16.4h-2.5v-20.6h2.5v16.5h0.2l11.2-16.5h2.5v20.6H685.8z M675.6,444.3h1.8
					c0,0.8,0.3,1.5,0.8,2c0.5,0.5,1.1,0.8,1.9,0.8s1.4-0.3,1.9-0.8c0.5-0.5,0.8-1.2,0.8-2h1.8c0,1.3-0.4,2.3-1.2,3.1
					c-0.8,0.8-1.9,1.2-3.2,1.2c-1.3,0-2.4-0.4-3.2-1.2C676,446.6,675.6,445.6,675.6,444.3z"/>
				<path class="st4" d="M709.9,460l10.3,10.8h-3.5l-9.5-10H707v10h-2.6v-20.6h2.6v9.5h0.1l8.9-9.5h3.2L709.9,460z"/>
				<path class="st4" d="M727.4,452.7c1.7-1.9,4-2.9,7-2.9c2.9,0,5.2,1,7,2.9s2.6,4.5,2.6,7.8c0,3.3-0.9,5.9-2.6,7.8
					c-1.7,1.9-4,2.9-7,2.9c-2.9,0-5.2-1-7-2.9c-1.7-1.9-2.6-4.5-2.6-7.8C724.8,457.2,725.7,454.6,727.4,452.7z M739.4,454.4
					c-1.2-1.5-2.9-2.2-5-2.2c-2.1,0-3.8,0.7-5,2.2c-1.2,1.5-1.9,3.5-1.9,6.1c0,2.5,0.6,4.6,1.9,6c1.2,1.5,2.9,2.2,5,2.2
					c2.1,0,3.8-0.7,5-2.2c1.2-1.5,1.9-3.5,1.9-6C741.2,457.9,740.6,455.9,739.4,454.4z"/>
				<path class="st4" d="M766.7,470.8h-2.6v-9.4h-11.3v9.4h-2.6v-20.6h2.6v8.9h11.3v-8.9h2.6V470.8z"/>
				<path class="st4" d="M776.6,470.8H774v-20.6h12.2v2.3h-9.7V470.8z"/>
				<path class="st4" d="M792.2,450.1h7.4c1.9,0,3.5,0.6,4.8,1.9s1.9,2.8,1.9,4.8c0,2-0.6,3.6-1.9,4.8c-1.2,1.2-2.8,1.9-4.8,1.9
					h-4.8v7.4h-2.6V450.1z M794.8,452.4v8.7h4.1c1.5,0,2.6-0.4,3.4-1.2c0.8-0.8,1.2-1.8,1.2-3.2c0-1.4-0.4-2.4-1.2-3.2
					s-1.9-1.1-3.4-1.1H794.8z"/>
				<path class="st4" d="M825.1,468.5v2.3h-12.8v-20.6h12.8v2.3h-10.2v6.6h9.7v2.3h-9.7v7.1H825.1z"/>
				<path class="st4" d="M840.2,471.1c-2.9,0-5.1-1-6.8-2.9c-1.7-1.9-2.5-4.5-2.5-7.8c0-3.2,0.8-5.8,2.5-7.8
					c1.7-1.9,3.9-2.9,6.8-2.9c2.2,0,4.1,0.6,5.6,1.8c1.5,1.2,2.5,2.8,2.9,4.8h-2.6c-0.4-1.3-1.1-2.3-2.2-3.1
					c-1.1-0.8-2.3-1.1-3.7-1.1c-2,0-3.6,0.8-4.8,2.3c-1.2,1.5-1.8,3.5-1.8,6c0,2.5,0.6,4.6,1.8,6.1c1.2,1.5,2.8,2.2,4.9,2.2
					c1.5,0,2.7-0.3,3.7-1s1.7-1.6,2.1-2.7h2.6c-0.5,2-1.5,3.5-3,4.5C844.3,470.6,842.5,471.1,840.2,471.1z"/>
				<path class="st4" d="M863.5,471.1c-2.9,0-5.1-1-6.8-2.9c-1.7-1.9-2.5-4.5-2.5-7.8c0-3.2,0.8-5.8,2.5-7.8
					c1.7-1.9,3.9-2.9,6.8-2.9c2.2,0,4.1,0.6,5.6,1.8c1.5,1.2,2.5,2.8,2.9,4.8h-2.6c-0.4-1.3-1.1-2.3-2.2-3.1
					c-1.1-0.8-2.3-1.1-3.7-1.1c-2,0-3.6,0.8-4.8,2.3c-1.2,1.5-1.8,3.5-1.8,6c0,2.5,0.6,4.6,1.8,6.1c1.2,1.5,2.8,2.2,4.9,2.2
					c1.5,0,2.7-0.3,3.7-1s1.7-1.6,2.1-2.7h2.6c-0.5,2-1.5,3.5-3,4.5C867.6,470.6,865.7,471.1,863.5,471.1z"/>
			</g>
		</g>
	</g>
</g>
</svg>
